# xmcd
#
# Track frame offsets:
#	225
#	31772
#	54172
#	72102
#	89197
#	112117
#	133305
#	151162
#	163175
#	177885
#	214315
#	245880
#	260000
#	279720
#	296017
#
# Disc length: 4136 seconds
#
# Revision: 1
# Processed by: cddbd v1.4PL0 Copyright (c) Steve Scherf et al.
# Submitted via: audiograbber 1.81.03
#
DISCID=ee10250f
DTITLE=Cuby and Blizzards - 3 Originals and Sometimes - CD 2
DYEAR=1999
DGENRE=Blues
TTITLE0=Simple Man
TTITLE1=The Faker
TTITLE2=When I'm Honest
TTITLE3=Backstreet
TTITLE4=Seasons Come And Seasons Go
TTITLE5=Gave You My Word
TTITLE6=Easy To Leave, Hard To Forget
TTITLE7=Pawn Broker
TTITLE8=Straight, No Chaser
TTITLE9=The Way I Feel
TTITLE10=I'm Drinking My Whisky
TTITLE11=Everytime
TTITLE12=Boston
TTITLE13=Sometimes
TTITLE14=Simply Jamming
EXTD=
EXTT0=
EXTT1=
EXTT2=
EXTT3=
EXTT4=
EXTT5=
EXTT6=
EXTT7=
EXTT8=
EXTT9=
EXTT10=
EXTT11=
EXTT12=
EXTT13=
EXTT14=
PLAYORDER=
